<svg width="12" height="16" viewBox="0 0 12 16" fill="none" xmlns="http://www.w3.org/2000/svg">
<path fill-rule="evenodd" clip-rule="evenodd" d="M0.585796 0.585796C0.210717 0.960875 0 1.46959 0 2.00003V2.66667V15.5003C4.67212e-05 15.5907 0.0246244 15.6794 0.0711152 15.757C0.117606 15.8346 0.184269 15.8981 0.264004 15.9408C0.343739 15.9835 0.43356 16.0038 0.5239 15.9994C0.61424 15.9951 0.701717 15.9664 0.777012 15.9163L6.0001 13.1012L11.2232 15.9163C11.2985 15.9664 11.386 15.9951 11.4763 15.9994C11.5666 16.0038 11.6565 15.9835 11.7362 15.9408C11.8159 15.8981 11.8826 15.8346 11.9291 15.757C11.9756 15.6794 12.0001 15.5907 12.0002 15.5003V2.00003C12.0002 1.46959 11.7895 0.960875 11.4144 0.585796C11.0393 0.210717 10.5306 0 10.0002 0H9.33333H2.66667H2.00003C1.46959 0 0.960875 0.210717 0.585796 0.585796ZM1.00002 2.66667H11.0002V14.5662L6.2771 12.0842C6.19504 12.0296 6.09867 12.0005 6.0001 12.0005C5.90153 12.0005 5.80515 12.0296 5.72309 12.0842L1.00002 14.5662V2.66667Z" fill="#C45500"/>
</svg>
