<svg width="28" height="35" viewBox="0 0 28 35" fill="none" xmlns="http://www.w3.org/2000/svg">
<path d="M20.6193 17.1174L20.6025 17.1615C20.6078 17.1482 20.612 17.1346 20.6172 17.1213L20.6193 17.1174Z" fill="black"/>
<mask id="path-2-inside-1_89_15809" fill="white">
<path d="M13.9997 0C8.23242 0 3.49902 4.718 3.49902 10.4727C3.49902 12.7029 4.21302 14.7812 5.41702 16.4836L5.37397 16.4164L12.0961 28.0357L12.13 28.0801C12.4009 28.4336 12.669 28.7185 12.9935 28.9331C13.3179 29.1476 13.7334 29.2831 14.1415 29.2421C14.957 29.1602 15.4309 28.5967 15.8687 28.0031L15.896 27.9664L23.3069 15.3545L23.3129 15.344C23.4903 15.0237 23.6188 14.7007 23.7287 14.3878C24.2369 13.1451 24.4986 11.8153 24.499 10.4727C24.499 4.718 19.767 0 13.9997 0ZM13.9997 1.75C18.8136 1.75 22.749 5.6763 22.749 10.4727C22.7493 11.593 22.5306 12.7026 22.105 13.7389L22.0963 13.7606L22.0886 13.7833C21.9965 14.0483 21.8964 14.2887 21.7809 14.4973L14.4453 26.9804C14.1208 27.4078 13.894 27.5089 13.9668 27.5012C14.0043 27.4977 14.0389 27.5271 13.9588 27.4739C13.8821 27.4232 13.7257 27.2744 13.5402 27.0378L6.86952 15.505L6.84607 15.4724C5.84052 14.0514 5.24902 12.3305 5.24902 10.4727C5.24902 5.67665 9.18582 1.75 13.9997 1.75ZM13.9997 4.4975C10.688 4.4975 8.00947 7.1666 8.00947 10.4727C8.00947 13.7788 10.6884 16.4479 13.9997 16.4479C17.3111 16.4479 19.9886 13.7784 19.9886 10.4727C19.9886 7.1666 17.3111 4.4975 13.9997 4.4975ZM13.9997 6.2475C16.3857 6.2475 18.2386 8.09725 18.2386 10.4727C18.2386 12.8481 16.386 14.6979 13.9997 14.6979C11.6134 14.6979 9.75947 12.8478 9.75947 10.4727C9.75947 8.09725 11.6138 6.2475 13.9997 6.2475Z"/>
</mask>
<path d="M13.9997 0C8.23242 0 3.49902 4.718 3.49902 10.4727C3.49902 12.7029 4.21302 14.7812 5.41702 16.4836L5.37397 16.4164L12.0961 28.0357L12.13 28.0801C12.4009 28.4336 12.669 28.7185 12.9935 28.9331C13.3179 29.1476 13.7334 29.2831 14.1415 29.2421C14.957 29.1602 15.4309 28.5967 15.8687 28.0031L15.896 27.9664L23.3069 15.3545L23.3129 15.344C23.4903 15.0237 23.6188 14.7007 23.7287 14.3878C24.2369 13.1451 24.4986 11.8153 24.499 10.4727C24.499 4.718 19.767 0 13.9997 0ZM13.9997 1.75C18.8136 1.75 22.749 5.6763 22.749 10.4727C22.7493 11.593 22.5306 12.7026 22.105 13.7389L22.0963 13.7606L22.0886 13.7833C21.9965 14.0483 21.8964 14.2887 21.7809 14.4973L14.4453 26.9804C14.1208 27.4078 13.894 27.5089 13.9668 27.5012C14.0043 27.4977 14.0389 27.5271 13.9588 27.4739C13.8821 27.4232 13.7257 27.2744 13.5402 27.0378L6.86952 15.505L6.84607 15.4724C5.84052 14.0514 5.24902 12.3305 5.24902 10.4727C5.24902 5.67665 9.18582 1.75 13.9997 1.75ZM13.9997 4.4975C10.688 4.4975 8.00947 7.1666 8.00947 10.4727C8.00947 13.7788 10.6884 16.4479 13.9997 16.4479C17.3111 16.4479 19.9886 13.7784 19.9886 10.4727C19.9886 7.1666 17.3111 4.4975 13.9997 4.4975ZM13.9997 6.2475C16.3857 6.2475 18.2386 8.09725 18.2386 10.4727C18.2386 12.8481 16.386 14.6979 13.9997 14.6979C11.6134 14.6979 9.75947 12.8478 9.75947 10.4727C9.75947 8.09725 11.6138 6.2475 13.9997 6.2475Z" fill="black"/>
<path d="M5.41702 16.4836L2.96768 18.2159L7.94313 14.8653L5.41702 16.4836ZM5.37397 16.4164L7.90008 14.7981L2.77722 17.9187L5.37397 16.4164ZM12.0961 28.0357L9.49932 29.538L9.59544 29.7041L9.71194 29.8567L12.0961 28.0357ZM12.13 28.0801L9.74589 29.9011L9.74882 29.9049L12.13 28.0801ZM14.1415 29.2421L14.441 32.2272L14.4413 32.2271L14.1415 29.2421ZM15.8687 28.0031L13.4604 26.2142L13.4545 26.2223L15.8687 28.0031ZM15.896 27.9664L18.3043 29.7553L18.4007 29.6256L18.4825 29.4863L15.896 27.9664ZM23.3069 15.3545L25.8934 16.8744L25.9054 16.854L25.917 16.8335L23.3069 15.3545ZM23.3129 15.344L25.923 16.823L25.93 16.8105L25.937 16.798L23.3129 15.344ZM23.7287 14.3878L20.9519 13.2522L20.9233 13.3222L20.8982 13.3936L23.7287 14.3878ZM24.499 10.4727L27.499 10.4737V10.4727H24.499ZM22.749 10.4727H19.749V10.4735L22.749 10.4727ZM22.105 13.7389L19.3299 12.5994L19.3263 12.6081L19.3227 12.6169L22.105 13.7389ZM22.0963 13.7606L19.314 12.6386L19.282 12.7178L19.2547 12.7987L22.0963 13.7606ZM22.0886 13.7833L24.9224 14.7679L24.9263 14.7566L24.9302 14.7453L22.0886 13.7833ZM21.7809 14.4973L24.3674 16.0173L24.3869 15.9842L24.4055 15.9505L21.7809 14.4973ZM14.4453 26.9804L16.8347 28.7945L16.9419 28.6533L17.0317 28.5004L14.4453 26.9804ZM13.9668 27.5012L13.6877 24.5143L13.6695 24.516L13.6513 24.5179L13.9668 27.5012ZM13.9588 27.4739L15.6178 24.9744L15.615 24.9725L13.9588 27.4739ZM13.5402 27.0378L10.9433 28.5399L11.049 28.7227L11.1793 28.8888L13.5402 27.0378ZM6.86952 15.505L9.46641 14.0029L9.39131 13.8731L9.30362 13.7514L6.86952 15.505ZM6.84607 15.4724L4.39719 17.2054L4.40454 17.2157L4.41197 17.2261L6.84607 15.4724ZM13.9997 -3C6.58364 -3 0.499023 3.05308 0.499023 10.4727H6.49902C6.49902 6.38292 9.8812 3 13.9997 3V-3ZM0.499023 10.4727C0.499023 13.3515 1.42203 16.0304 2.96768 18.2159L7.86636 14.7513C7.00402 13.532 6.49902 12.0543 6.49902 10.4727H0.499023ZM7.94313 14.8653L7.90008 14.7981L2.84787 18.0347L2.89092 18.1019L7.94313 14.8653ZM2.77722 17.9187L9.49932 29.538L14.6928 26.5334L7.97072 14.9141L2.77722 17.9187ZM9.71194 29.8567L9.74589 29.9011L14.5142 26.2592L14.4802 26.2147L9.71194 29.8567ZM9.74882 29.9049C10.1195 30.3886 10.6233 30.9623 11.3387 31.4355L14.6482 26.4307C14.7148 26.4748 14.6824 26.4787 14.5112 26.2553L9.74882 29.9049ZM11.3387 31.4355C12.11 31.9455 13.2052 32.3512 14.441 32.2272L13.8419 26.2571C14.0637 26.2349 14.2394 26.2645 14.3565 26.2978C14.4728 26.3309 14.5675 26.3774 14.6482 26.4307L11.3387 31.4355ZM14.4413 32.2271C16.6912 32.0012 17.8605 30.3567 18.283 29.784L13.4545 26.2223C13.3594 26.3512 13.3012 26.4252 13.2577 26.4755C13.2163 26.5235 13.2136 26.52 13.246 26.4935C13.2823 26.4637 13.3599 26.4073 13.4773 26.3552C13.5989 26.3013 13.7256 26.2688 13.8417 26.2572L14.4413 32.2271ZM18.277 29.7921L18.3043 29.7553L13.4878 26.1775L13.4605 26.2142L18.277 29.7921ZM18.4825 29.4863L25.8934 16.8744L20.7204 13.8346L13.3095 26.4465L18.4825 29.4863ZM25.917 16.8335L25.923 16.823L20.7028 13.865L20.6968 13.8755L25.917 16.8335ZM25.937 16.798C26.2297 16.2696 26.4226 15.7707 26.5592 15.382L20.8982 13.3936C20.8149 13.6307 20.7509 13.7779 20.6888 13.89L25.937 16.798ZM26.5054 15.5234C27.161 13.9205 27.4984 12.2055 27.499 10.4737L21.499 10.4717C21.4987 11.4252 21.3129 12.3696 20.9519 13.2522L26.5054 15.5234ZM27.499 10.4727C27.499 3.0536 21.4163 -3 13.9997 -3V3C18.1177 3 21.499 6.3824 21.499 10.4727H27.499ZM13.9997 4.75C17.1647 4.75 19.749 7.34112 19.749 10.4727H25.749C25.749 4.01148 20.4625 -1.25 13.9997 -1.25V4.75ZM19.749 10.4735C19.7492 11.2027 19.6068 11.9249 19.3299 12.5994L24.8802 14.8784C25.4543 13.4803 25.7494 11.9833 25.749 10.4719L19.749 10.4735ZM19.3227 12.6169L19.314 12.6386L24.8786 14.8826L24.8873 14.8609L19.3227 12.6169ZM19.2547 12.7987L19.247 12.8214L24.9302 14.7453L24.9379 14.7225L19.2547 12.7987ZM19.2547 12.7988C19.2266 12.8799 19.2032 12.9398 19.1847 12.9829C19.1662 13.0262 19.1562 13.0445 19.1564 13.0442L24.4055 15.9505C24.6327 15.5402 24.7976 15.1271 24.9224 14.7679L19.2547 12.7988ZM19.1945 12.9774L11.8588 25.4605L17.0317 28.5004L24.3674 16.0173L19.1945 12.9774ZM12.0559 25.1664C12.0354 25.1934 12.041 25.182 12.0728 25.154C12.0757 25.1514 12.077 25.1504 12.0628 25.1624C12.0588 25.1658 12.0407 25.1811 12.0228 25.1965C12.0072 25.2099 11.9646 25.2467 11.9142 25.2938C11.8815 25.3246 11.7501 25.447 11.6091 25.6241C11.5385 25.7128 11.4015 25.894 11.2734 26.1487C11.1614 26.3716 10.9228 26.909 10.9564 27.6367C10.9972 28.5233 11.4248 29.3224 12.0878 29.8492C12.6306 30.2805 13.1742 30.4071 13.4054 30.4503C13.864 30.536 14.2366 30.4894 14.2824 30.4846L13.6513 24.5179C13.6879 24.514 14.0538 24.4676 14.5079 24.5524C14.7368 24.5952 15.2787 24.7211 15.8203 25.1515C16.4822 25.6774 16.9092 26.4754 16.95 27.3605C16.9835 28.0868 16.7453 28.6225 16.6343 28.8434C16.5073 29.0961 16.3718 29.275 16.3032 29.3612C16.1662 29.5332 16.041 29.6494 16.0162 29.6726C15.9548 29.7302 15.8938 29.7805 15.9385 29.7427C15.9552 29.7286 15.9944 29.6954 16.0414 29.654C16.2495 29.4705 16.5307 29.1948 16.8347 28.7945L12.0559 25.1664ZM14.246 30.4882C13.8522 30.525 13.5447 30.4724 13.4119 30.4462C13.3361 30.4313 13.2776 30.4164 13.2696 30.4143C13.2522 30.41 13.2883 30.4192 13.32 30.4266C13.3391 30.4311 13.383 30.4412 13.4391 30.452C13.4819 30.4603 13.6076 30.484 13.7704 30.4969C13.7802 30.4977 14.4088 30.5752 15.1165 30.2936C15.5529 30.12 16.3362 29.6779 16.7604 28.6982C17.1798 27.7297 16.9728 26.8692 16.8161 26.4518C16.5562 25.7594 16.0975 25.3537 16.0854 25.3421C15.9677 25.229 15.8664 25.1507 15.8283 25.1216C15.7444 25.0575 15.6742 25.0112 15.6644 25.0047C15.6427 24.9903 15.6247 24.9788 15.621 24.9764C15.6024 24.9644 15.6143 24.9721 15.6178 24.9744L12.2997 29.9735C12.3433 30.0024 12.381 30.0263 12.3773 30.024C12.3772 30.024 12.3623 30.0144 12.343 30.0016C12.3356 29.9967 12.2672 29.9517 12.1845 29.8885C12.147 29.8598 12.0463 29.7819 11.9288 29.6691C11.9171 29.6578 11.4586 29.2524 11.1988 28.5603C11.0421 28.143 10.8351 27.2825 11.2544 26.3141C11.6786 25.3344 12.4619 24.8924 12.8982 24.7188C13.6057 24.4373 14.234 24.5148 14.2434 24.5156C14.4058 24.5284 14.531 24.5521 14.5731 24.5602C14.6286 24.5709 14.6717 24.5808 14.69 24.5851C14.72 24.5922 14.754 24.6008 14.7342 24.5959C14.7213 24.5926 14.6564 24.5761 14.5734 24.5597C14.4261 24.5307 14.1002 24.4757 13.6877 24.5143L14.246 30.4882ZM15.615 24.9725C15.6871 25.0203 15.7421 25.0618 15.777 25.0892C15.8137 25.1179 15.8421 25.142 15.8616 25.1591C15.8998 25.1924 15.9223 25.215 15.9295 25.2223C15.9438 25.2368 15.9318 25.226 15.9011 25.1869L11.1793 28.8888C11.4239 29.2009 11.8184 29.6548 12.3026 29.9754L15.615 24.9725ZM16.1371 25.5358L9.46641 14.0029L4.27263 17.0071L10.9433 28.5399L16.1371 25.5358ZM9.30362 13.7514L9.28017 13.7188L4.41197 17.2261L4.43542 17.2586L9.30362 13.7514ZM9.29495 13.7395C8.63106 12.8014 8.24902 11.6811 8.24902 10.4727H2.24902C2.24902 12.9799 3.04998 15.3015 4.39719 17.2054L9.29495 13.7395ZM8.24902 10.4727C8.24902 7.34202 10.8342 4.75 13.9997 4.75V-1.25C7.53749 -1.25 2.24902 4.01128 2.24902 10.4727H8.24902ZM13.9997 1.4975C9.03918 1.4975 5.00947 5.50175 5.00947 10.4727H11.0095C11.0095 8.83145 12.3369 7.4975 13.9997 7.4975V1.4975ZM5.00947 10.4727C5.00947 15.4438 9.03964 19.4479 13.9997 19.4479V13.4479C12.3371 13.4479 11.0095 12.1138 11.0095 10.4727H5.00947ZM13.9997 19.4479C18.9608 19.4479 22.9886 15.4424 22.9886 10.4727H16.9886C16.9886 12.1145 15.6613 13.4479 13.9997 13.4479V19.4479ZM22.9886 10.4727C22.9886 5.50254 18.9607 1.4975 13.9997 1.4975V7.4975C15.6614 7.4975 16.9886 8.83066 16.9886 10.4727H22.9886ZM13.9997 9.2475C14.7366 9.2475 15.2386 9.76191 15.2386 10.4727H21.2386C21.2386 6.43259 18.0347 3.2475 13.9997 3.2475V9.2475ZM15.2386 10.4727C15.2386 11.1837 14.7368 11.6979 13.9997 11.6979V17.6979C18.0352 17.6979 21.2386 14.5126 21.2386 10.4727H15.2386ZM13.9997 11.6979C13.2615 11.6979 12.7595 11.1822 12.7595 10.4727H6.75947C6.75947 14.5134 9.96536 17.6979 13.9997 17.6979V11.6979ZM12.7595 10.4727C12.7595 9.76321 13.2615 9.2475 13.9997 9.2475V3.2475C9.96604 3.2475 6.75947 6.43129 6.75947 10.4727H12.7595Z" fill="black" mask="url(#path-2-inside-1_89_15809)"/>
<path d="M8.4021 24.1704C3.458 24.869 0 26.5403 0 29.0004C0 32.3142 5.7778 35.0005 14 35.0005C22.2222 35.0005 28 32.3142 28 29.0004C28 26.5403 24.5424 24.869 19.5986 24.1704L18.9137 25.3366C22.6398 25.8536 26.5 27.7393 26.5 29C26.5 30.7675 20.1856 33.5 14 33.5C7.81445 33.5 1.5 30.7675 1.5 29C1.49965 27.7435 5.3431 25.8588 9.08075 25.3398C8.855 24.9499 8.6282 24.5607 8.4021 24.1704Z" fill="black"/>
</svg>
