<svg width="80" height="80" viewBox="0 0 80 80" fill="none" xmlns="http://www.w3.org/2000/svg">
<circle cx="40" cy="40" r="40" fill="#FFF1E7"/>
<path d="M41.1115 31.4478L37.3982 29.9115L39.2212 26L40.5062 26.5982L39.3062 29.1681L41.6531 30.1381L41.1115 31.4478Z" fill="#10075E"/>
<path d="M35.2213 45.0195H27.4337V43.7558L31.7098 39.0053C32.3434 38.2867 32.7788 37.7027 33.0195 37.2531C33.2603 36.8036 33.3806 36.3398 33.3806 35.8584C33.3806 35.2142 33.1859 34.6832 32.7965 34.2726C32.4072 33.8584 31.8868 33.6531 31.2355 33.6531C30.4532 33.6531 29.8479 33.8761 29.416 34.3186C28.9841 34.7611 28.7682 35.3806 28.7682 36.1735H27.1965C27.1965 35.0372 27.5611 34.1168 28.2939 33.416C29.0266 32.7151 30.0072 32.3646 31.2355 32.3646C32.3824 32.3646 33.2921 32.6655 33.9611 33.2673C34.6302 33.869 34.9629 34.6726 34.9629 35.6744C34.9629 36.8921 34.1877 38.3398 32.6372 40.0177L29.3275 43.6036H35.2213V45.0195Z" fill="#10075E"/>
<path d="M42.6548 40.7717H44.4248V42.1876H42.6548V44.6655H41.2389V42.1876L35.5752 41.8337V40.9381L41.0124 32.6301H42.6548V40.7717ZM37.4832 40.7717H41.2425V34.8496L41.0584 35.1823L37.4832 40.7717Z" fill="#10075E"/>
<path d="M45.8407 49.2672C47.0137 49.2672 47.9646 48.3163 47.9646 47.1433C47.9646 45.9703 47.0137 45.0194 45.8407 45.0194C44.6677 45.0194 43.7168 45.9703 43.7168 47.1433C43.7168 48.3163 44.6677 49.2672 45.8407 49.2672Z" fill="#5281FF"/>
<path d="M45.8406 49.9752C44.2796 49.9752 43.0088 48.7044 43.0088 47.1434C43.0088 45.5823 44.2796 44.3115 45.8406 44.3115C47.4017 44.3115 48.6725 45.5823 48.6725 47.1434C48.6725 48.7044 47.4017 49.9752 45.8406 49.9752ZM45.8406 45.7275C45.0583 45.7275 44.4247 46.3611 44.4247 47.1434C44.4247 47.9257 45.0583 48.5593 45.8406 48.5593C46.6229 48.5593 47.2566 47.9257 47.2566 47.1434C47.2566 46.3646 46.6229 45.7275 45.8406 45.7275Z" fill="#10075E"/>
<path d="M52.9174 20.3174H29.5094C27.746 20.3174 26.3174 21.746 26.3174 23.5094V54.5158H52.9174V20.3174Z" fill="#526FAA"/>
<path d="M31.0967 20.3174H29.5094C27.746 20.3174 26.3174 21.746 26.3174 23.5094V54.5158H27.9047V23.5094C27.9047 21.746 29.3333 20.3174 31.0967 20.3174Z" fill="#708DC8"/>
<path d="M52.9174 20.3174H51.3301V54.5158H52.9174V20.3174Z" fill="#34518C"/>
<path d="M29.5095 54.8333H26.3175C26.1429 54.8333 26 54.6905 26 54.5159V23.5095C26 21.5746 27.5746 20 29.5095 20C29.6841 20 29.827 20.1429 29.827 20.3175V54.5159C29.827 54.6921 29.6841 54.8333 29.5095 54.8333ZM26.6349 54.1984H29.1921V20.6524C27.7556 20.8111 26.6349 22.0317 26.6349 23.5095V54.1984Z" fill="#690589"/>
<path d="M52.9175 54.8333H26.3175C26.1429 54.8333 26 54.6905 26 54.5159V23.5095C26 21.5746 27.5746 20 29.5095 20H52.9175C53.0921 20 53.2349 20.1429 53.2349 20.3175V54.5159C53.2349 54.6921 53.0921 54.8333 52.9175 54.8333ZM26.6349 54.1984H52.6V20.6349H29.5095C27.9238 20.6349 26.6349 21.9238 26.6349 23.5095V54.1984Z" fill="#690589"/>
<path d="M27.5872 28.3842C27.4126 28.3842 27.2698 28.2413 27.2698 28.0667V26.1619C27.2698 25.9873 27.4126 25.8445 27.5872 25.8445C27.7618 25.8445 27.9047 25.9873 27.9047 26.1619V28.0667C27.9047 28.2413 27.7618 28.3842 27.5872 28.3842Z" fill="#690589"/>
<path d="M48.3476 32.2953H34.1826C33.7445 32.2953 33.3889 31.9397 33.3889 31.5016V26.1715C33.3889 25.7334 33.7445 25.3778 34.1826 25.3778H48.3476C48.7857 25.3778 49.1413 25.7334 49.1413 26.1715V31.5016C49.1413 31.9397 48.7857 32.2953 48.3476 32.2953Z" fill="#FCC24C"/>
<path d="M48.3477 32.6127H34.1826C33.5699 32.6127 33.0715 32.1143 33.0715 31.5016V26.1714C33.0715 25.5587 33.5699 25.0603 34.1826 25.0603H48.3477C48.9604 25.0603 49.4588 25.5587 49.4588 26.1714V31.5016C49.4588 32.1143 48.9604 32.6127 48.3477 32.6127ZM34.1826 25.6952C33.9207 25.6952 33.7065 25.9095 33.7065 26.1714V31.5016C33.7065 31.7635 33.9207 31.9778 34.1826 31.9778H48.3477C48.6096 31.9778 48.8239 31.7635 48.8239 31.5016V26.1714C48.8239 25.9095 48.6096 25.6952 48.3477 25.6952H34.1826Z" fill="#690589"/>
<path d="M52.9174 57.708H29.5094C27.746 57.708 26.3174 56.2794 26.3174 54.5175C26.3174 52.754 27.746 51.3254 29.5094 51.3254H52.9174V57.708Z" fill="#F4EFED"/>
<path d="M27.9047 54.5158C27.9047 52.7523 29.3333 51.3237 31.0967 51.3237H29.5094C27.746 51.3237 26.3174 52.7539 26.3174 54.5158C26.3174 56.2777 27.746 57.7079 29.5094 57.7079H31.0967C29.3333 57.7079 27.9047 56.2793 27.9047 54.5158Z" fill="white"/>
<path d="M52.9174 51.3237H51.3301V57.7079H52.9174V51.3237Z" fill="#D6D1CF"/>
<path d="M52.9175 58.0254H29.5095C27.5746 58.0254 26 56.4524 26 54.5159C26 52.5794 27.5746 51.0063 29.5095 51.0063H52.9175C53.0921 51.0063 53.2349 51.1492 53.2349 51.3238V57.7079C53.2349 57.8841 53.0921 58.0254 52.9175 58.0254ZM29.5095 51.6429C27.9238 51.6429 26.6349 52.9317 26.6349 54.5175C26.6349 56.1032 27.9238 57.3921 29.5095 57.3921H52.6V51.6429H29.5095Z" fill="#690589"/>
<path d="M34.365 59.6825L32.4094 58.3698L30.4539 59.6825V54.5159H34.365V59.6825Z" fill="#526FAA"/>
<path d="M30.4539 60.0001C30.4031 60.0001 30.3508 59.9874 30.3047 59.962C30.2016 59.9064 30.1365 59.7985 30.1365 59.6826V54.5159C30.1365 54.3413 30.2793 54.1985 30.4539 54.1985H34.365C34.5397 54.1985 34.6825 54.3413 34.6825 54.5159V59.6826C34.6825 59.8001 34.6174 59.908 34.5143 59.962C34.4111 60.0175 34.2857 60.0112 34.1873 59.9461L32.4095 58.7525L30.6317 59.9461C30.5777 59.9826 30.5158 60.0001 30.4539 60.0001ZM30.7714 54.8334V59.0858L32.2317 58.1048C32.3396 58.0334 32.4793 58.0334 32.5857 58.1048L34.046 59.0858V54.8334H30.7714Z" fill="#690589"/>
<path d="M49.8651 54.8334H34.3651C34.1905 54.8334 34.0476 54.6906 34.0476 54.5159C34.0476 54.3413 34.1905 54.1985 34.3651 54.1985H49.8651C50.0397 54.1985 50.1825 54.3413 50.1825 54.5159C50.1825 54.6906 50.0397 54.8334 49.8651 54.8334Z" fill="#690589"/>
</svg>
