<svg width="80" height="80" viewBox="0 0 80 80" fill="none" xmlns="http://www.w3.org/2000/svg">
<circle cx="40" cy="40" r="40" fill="#EAE8F4"/>
<path d="M46.7951 59.5219H52.721C52.9963 59.5219 53.2209 59.2992 53.2209 59.0239V20.4999C53.2209 20.3477 53.1521 20.2119 53.0452 20.1213C52.9583 20.0453 52.8442 20 52.721 20H26.4999C26.3767 20 26.2626 20.0453 26.1757 20.1213C26.0688 20.2119 26 20.3477 26 20.4999V59.0239C26 59.2992 26.2246 59.5219 26.4999 59.5219H46.7951Z" fill="#CEC3AF" stroke="#2F5199" stroke-miterlimit="10"/>
<path d="M26 20L38.0583 28.2641C38.9929 28.9052 40.2262 28.9052 41.1608 28.2641L53.2191 20" stroke="#2F5199" stroke-miterlimit="10"/>
<path d="M39.2555 55.8854H29.5063C29.3107 55.8854 29.1514 55.726 29.1514 55.5304V52.6616C29.1514 52.466 29.3107 52.3066 29.5063 52.3066H39.2555C39.4511 52.3066 39.6105 52.466 39.6105 52.6616V55.5304C39.6105 55.726 39.4511 55.8854 39.2555 55.8854Z" fill="#9CB6DA" stroke="#2F5199" stroke-miterlimit="10"/>
<path d="M40.3298 24.9588C40.9784 24.5622 41.1827 23.7149 40.7861 23.0663C40.3895 22.4177 39.5422 22.2134 38.8936 22.61C38.245 23.0066 38.0407 23.8539 38.4373 24.5025C38.8339 25.1511 39.6812 25.3554 40.3298 24.9588Z" stroke="#2F5199" stroke-miterlimit="10"/>
<path d="M40.3303 34.5635C40.9789 34.1669 41.1832 33.3197 40.7866 32.6711C40.39 32.0225 39.5427 31.8182 38.8941 32.2148C38.2455 32.6114 38.0412 33.4586 38.4378 34.1072C38.8344 34.7558 39.6817 34.9601 40.3303 34.5635Z" stroke="#2F5199" stroke-miterlimit="10"/>
<path d="M38.2339 23.7854V33.3897" stroke="#2F5199" stroke-miterlimit="10"/>
<path d="M40.9868 23.7854V33.3897" stroke="#2F5199" stroke-miterlimit="10"/>
<path d="M45.4947 60C45.7588 60 45.9729 59.7859 45.9729 59.5218C45.9729 59.2578 45.7588 59.0437 45.4947 59.0437C45.2307 59.0437 45.0166 59.2578 45.0166 59.5218C45.0166 59.7859 45.2307 60 45.4947 60Z" fill="#2F5199"/>
<path d="M31.9207 24.0569V40.8078" stroke="#2F5199" stroke-miterlimit="10"/>
<path d="M31.9207 40.5V45.3953" stroke="#2F5199" stroke-miterlimit="10"/>
</svg>
