<svg width="80" height="80" viewBox="0 0 80 80" fill="none" xmlns="http://www.w3.org/2000/svg">
<circle cx="40" cy="40" r="40" fill="#FEE8F4"/>
<path fill-rule="evenodd" clip-rule="evenodd" d="M48.6789 59.9939H31.0757C29.3841 59.9939 28 58.6098 28 56.9181V23.1029C28 21.4112 29.3841 20.0271 31.0757 20.0271H48.6789C50.3706 20.0271 51.7546 21.4112 51.7546 23.1029V56.9181C51.7546 58.6098 50.3706 59.9939 48.6789 59.9939Z" fill="#317C7A"/>
<path fill-rule="evenodd" clip-rule="evenodd" d="M48.0161 59.0132H31.7383C30.1466 59.0132 28.8442 57.7109 28.8442 56.1192V23.8144C28.8442 22.2227 30.1466 20.9203 31.7383 20.9203H48.0161C49.6079 20.9203 50.9102 22.2227 50.9102 23.8144V56.1192C50.9102 57.7109 49.6079 59.0132 48.0161 59.0132Z" fill="#236864"/>
<path fill-rule="evenodd" clip-rule="evenodd" d="M48.0607 58.0326H31.7415C30.1733 58.0326 28.8901 56.7495 28.8901 55.1812V23.8326C28.8901 22.2644 30.1733 20.9813 31.7415 20.9813H48.0607C49.6289 20.9813 50.9121 22.2644 50.9121 23.8326V55.1812C50.9121 56.7495 49.6289 58.0326 48.0607 58.0326Z" fill="#E9F1F2"/>
<mask id="mask0_44_6834" style="mask-type:alpha" maskUnits="userSpaceOnUse" x="28" y="20" width="23" height="39">
<path d="M31.7415 20.9812C30.1733 20.9812 28.8901 22.2644 28.8901 23.8326V55.1812C28.8901 56.7495 30.1733 58.0326 31.7415 58.0326H48.0607C49.6289 58.0326 50.9121 56.7495 50.9121 55.1812V23.8326C50.9121 22.2644 49.6289 20.9812 48.0607 20.9812H31.7415Z" fill="white"/>
</mask>
<g mask="url(#mask0_44_6834)">
<path fill-rule="evenodd" clip-rule="evenodd" d="M47.2793 18.861C47.2793 18.861 52.064 53.6861 27.9997 51.8574C3.93548 50.0287 28.5345 62.1141 28.5345 62.1141L56.6517 60.7624L58.3404 34.6834L55.3851 16.4757L47.2793 18.861Z" fill="#D1E3E5"/>
</g>
<path fill-rule="evenodd" clip-rule="evenodd" d="M34.2764 31.3132L39.91 28.0841L45.5435 31.3132V37.6229C45.5435 38.4423 45.1339 39.2139 44.4377 39.7055L40.896 42.2068C40.3108 42.6201 39.507 42.6227 38.9188 42.2133L35.3067 39.6993C34.6587 39.2483 34.2764 38.5345 34.2764 37.7757V31.3132Z" fill="#418C8C"/>
<mask id="mask1_44_6834" style="mask-type:alpha" maskUnits="userSpaceOnUse" x="34" y="28" width="12" height="15">
<path d="M34.2764 31.3132V37.7757C34.2764 38.5345 34.6587 39.2483 35.3067 39.6993L38.9188 42.2133C39.507 42.6227 40.3108 42.6201 40.896 42.2068L44.4378 39.7055C45.1339 39.2139 45.5436 38.4423 45.5436 37.6229V31.3132L39.91 28.0841L34.2764 31.3132Z" fill="white"/>
</mask>
<g mask="url(#mask1_44_6834)">
<path fill-rule="evenodd" clip-rule="evenodd" d="M39.8774 24.5857L39.9056 46.2122L51.7548 38.1818V24.1881L39.8774 24.5857Z" fill="#296866"/>
</g>
<path fill-rule="evenodd" clip-rule="evenodd" d="M42.298 34.2683C42.298 35.6934 41.2836 36.8487 40.0323 36.8487C38.781 36.8487 37.7666 35.6934 37.7666 34.2683C37.7666 32.8432 38.781 31.6879 40.0323 31.6879C41.2836 31.6879 42.298 32.8432 42.298 34.2683Z" fill="white"/>
<path fill-rule="evenodd" clip-rule="evenodd" d="M41.8183 34.2812C41.8183 35.4014 41.021 36.3095 40.0373 36.3095C39.0537 36.3095 38.2563 35.4014 38.2563 34.2812C38.2563 33.1609 39.0537 32.2528 40.0373 32.2528C41.021 32.2528 41.8183 33.1609 41.8183 34.2812Z" fill="#418C8C"/>
<path fill-rule="evenodd" clip-rule="evenodd" d="M42.9484 37.8289H37.1157C36.9347 37.8289 36.7866 37.6808 36.7866 37.4998V34.2947C36.7866 34.1137 36.9347 33.9656 37.1157 33.9656H42.9484C43.1294 33.9656 43.2775 34.1137 43.2775 34.2947V37.4998C43.2775 37.6808 43.1294 37.8289 42.9484 37.8289Z" fill="white"/>
<mask id="mask2_44_6834" style="mask-type:alpha" maskUnits="userSpaceOnUse" x="36" y="33" width="8" height="5">
<path d="M37.1157 33.9656C36.9347 33.9656 36.7866 34.1137 36.7866 34.2947V37.4998C36.7866 37.6808 36.9347 37.8289 37.1157 37.8289H42.9484C43.1294 37.8289 43.2775 37.6808 43.2775 37.4998V34.2947C43.2775 34.1137 43.1294 33.9656 42.9484 33.9656H37.1157Z" fill="white"/>
</mask>
<g mask="url(#mask2_44_6834)">
<path fill-rule="evenodd" clip-rule="evenodd" d="M40.637 32.1126C40.637 32.1126 46.9134 37.6252 36.2182 37.0687C25.5229 36.5121 41.7346 39.2154 41.7346 39.2154L44.8588 37.8372V32.2451L42.4664 32.6426L40.637 32.1126Z" fill="#F7E5C1"/>
</g>
<path fill-rule="evenodd" clip-rule="evenodd" d="M37.2751 32.8529L36.3672 34.1195L40.2342 36.8426L47.3629 28.6416L45.648 27.66L39.9988 35.0377L37.2751 32.8529Z" fill="#FDAD5E"/>
<mask id="mask3_44_6834" style="mask-type:alpha" maskUnits="userSpaceOnUse" x="36" y="27" width="12" height="10">
<path d="M39.9988 35.0377L37.2751 32.8529L36.3672 34.1195L40.2342 36.8426L47.3629 28.6416L45.6479 27.66L39.9988 35.0377Z" fill="white"/>
</mask>
<g mask="url(#mask3_44_6834)">
<path fill-rule="evenodd" clip-rule="evenodd" d="M36.9522 33.1938L35.9033 34.6571L40.3709 37.8031L48.6069 28.3283L46.6256 27.1943L40.099 35.7179L36.9522 33.1938Z" fill="#EA8F3D"/>
</g>
<path fill-rule="evenodd" clip-rule="evenodd" d="M33.2982 23.075H31.6517C31.4853 23.075 31.3491 22.9388 31.3491 22.7725V22.3704C31.3491 22.204 31.4853 22.0679 31.6517 22.0679H33.2982C33.4646 22.0679 33.6008 22.204 33.6008 22.3704V22.7725C33.6008 22.9388 33.4646 23.075 33.2982 23.075Z" fill="#317C7A"/>
<path fill-rule="evenodd" clip-rule="evenodd" d="M36.2255 23.075H34.5789C34.4125 23.075 34.2764 22.9388 34.2764 22.7725V22.3704C34.2764 22.204 34.4125 22.0679 34.5789 22.0679H36.2255C36.3919 22.0679 36.528 22.204 36.528 22.3704V22.7725C36.528 22.9388 36.3919 23.075 36.2255 23.075Z" fill="#317C7A"/>
<path fill-rule="evenodd" clip-rule="evenodd" d="M48.1029 23.1015H46.4563C46.29 23.1015 46.1538 22.9653 46.1538 22.7989V22.3969C46.1538 22.2305 46.29 22.0944 46.4563 22.0944H48.1029C48.2693 22.0944 48.4054 22.2305 48.4054 22.3969V22.7989C48.4054 22.9653 48.2693 23.1015 48.1029 23.1015Z" fill="#317C7A"/>
<path fill-rule="evenodd" clip-rule="evenodd" d="M36.5566 54.0836C36.5566 54.4921 36.9083 54.8232 37.3421 54.8232C37.776 54.8232 38.1276 54.4921 38.1276 54.0836C38.1276 53.6751 37.776 53.3439 37.3421 53.3439C36.9083 53.3439 36.5566 53.6751 36.5566 54.0836Z" fill="#7C4927"/>
<path fill-rule="evenodd" clip-rule="evenodd" d="M36.8652 54.0963C36.8652 54.3526 37.0859 54.5604 37.3581 54.5604C37.6303 54.5604 37.851 54.3526 37.851 54.0963C37.851 53.84 37.6303 53.6322 37.3581 53.6322C37.0859 53.6322 36.8652 53.84 36.8652 54.0963Z" fill="#DD8345"/>
<path fill-rule="evenodd" clip-rule="evenodd" d="M41.7915 54.1101C41.7915 54.5186 42.1432 54.8497 42.577 54.8497C43.0108 54.8497 43.3625 54.5186 43.3625 54.1101C43.3625 53.7016 43.0108 53.3704 42.577 53.3704C42.1432 53.3704 41.7915 53.7016 41.7915 54.1101Z" fill="#7C4927"/>
<path fill-rule="evenodd" clip-rule="evenodd" d="M42.1006 54.1228C42.1006 54.3791 42.3212 54.5869 42.5934 54.5869C42.8657 54.5869 43.0863 54.3791 43.0863 54.1228C43.0863 53.8665 42.8657 53.6587 42.5934 53.6587C42.3212 53.6587 42.1006 53.8665 42.1006 54.1228Z" fill="#DD8345"/>
<path d="M31.6587 42.6115C31.6587 42.6115 32.6752 42.3214 33.1681 43.6557C33.6609 44.99 36.0636 51.2844 36.0636 51.2844L44.011 50.5013C44.011 50.5013 44.011 50.7333 44.7503 49.5441" stroke="#DD8345" stroke-width="0.2" stroke-linecap="round"/>
<path fill-rule="evenodd" clip-rule="evenodd" d="M46.7378 45.8185L46.0461 49.5016C46.0188 49.6468 45.8923 49.7574 45.7365 49.7722L36.2315 50.6782C36.0709 50.6936 35.92 50.6035 35.8661 50.4602L33.5019 44.1698C33.4141 43.936 33.6213 43.6981 33.8819 43.7334L46.4429 45.4347C46.6387 45.4612 46.7723 45.6351 46.7378 45.8185Z" fill="#FFCEA1"/>
<mask id="mask4_44_6834" style="mask-type:alpha" maskUnits="userSpaceOnUse" x="33" y="43" width="14" height="8">
<path d="M33.5024 44.1698L35.8666 50.4602C35.9205 50.6035 36.0714 50.6935 36.232 50.6782L45.737 49.7722C45.8928 49.7573 46.0192 49.6468 46.0465 49.5016L46.7383 45.8185C46.7728 45.635 46.6391 45.4612 46.4433 45.4347L33.8824 43.7334C33.865 43.731 33.8478 43.7299 33.8309 43.7299C33.5954 43.7299 33.4205 43.9517 33.5024 44.1698Z" fill="white"/>
</mask>
<g mask="url(#mask4_44_6834)">
<path d="M31.6729 44.9718L48.3356 46.7901" stroke="#DD965B" stroke-width="0.2" stroke-linecap="round"/>
</g>
<mask id="mask5_44_6834" style="mask-type:alpha" maskUnits="userSpaceOnUse" x="33" y="43" width="14" height="8">
<path d="M33.5024 44.1698L35.8666 50.4602C35.9205 50.6035 36.0714 50.6935 36.232 50.6782L45.737 49.7722C45.8928 49.7573 46.0192 49.6468 46.0465 49.5016L46.7383 45.8185C46.7728 45.635 46.6391 45.4612 46.4433 45.4347L33.8824 43.7334C33.865 43.731 33.8478 43.7299 33.8309 43.7299C33.5954 43.7299 33.4205 43.9517 33.5024 44.1698Z" fill="white"/>
</mask>
<g mask="url(#mask5_44_6834)">
<path d="M32.1519 47.2061L48.1102 47.6566" stroke="#DD965B" stroke-width="0.2" stroke-linecap="round"/>
</g>
<mask id="mask6_44_6834" style="mask-type:alpha" maskUnits="userSpaceOnUse" x="33" y="43" width="14" height="8">
<path d="M33.5024 44.1698L35.8666 50.4602C35.9205 50.6035 36.0714 50.6935 36.232 50.6782L45.737 49.7722C45.8928 49.7573 46.0192 49.6468 46.0465 49.5016L46.7383 45.8185C46.7728 45.635 46.6391 45.4612 46.4433 45.4347L33.8824 43.7334C33.865 43.731 33.8478 43.7299 33.8309 43.7299C33.5954 43.7299 33.4205 43.9517 33.5024 44.1698Z" fill="white"/>
</mask>
<g mask="url(#mask6_44_6834)">
<path d="M32.4048 49.6444L48.3913 48.4517" stroke="#DD965B" stroke-width="0.2" stroke-linecap="round"/>
</g>
<mask id="mask7_44_6834" style="mask-type:alpha" maskUnits="userSpaceOnUse" x="33" y="43" width="14" height="8">
<path d="M33.5024 44.1698L35.8666 50.4602C35.9205 50.6035 36.0714 50.6935 36.232 50.6782L45.737 49.7722C45.8928 49.7573 46.0192 49.6468 46.0465 49.5016L46.7383 45.8185C46.7728 45.635 46.6391 45.4612 46.4433 45.4347L33.8824 43.7334C33.865 43.731 33.8478 43.7299 33.8309 43.7299C33.5954 43.7299 33.4205 43.9517 33.5024 44.1698Z" fill="white"/>
</mask>
<g mask="url(#mask7_44_6834)">
<path d="M34.9941 42.8861L37.4709 51.3936" stroke="#DD965B" stroke-width="0.2" stroke-linecap="round"/>
</g>
<mask id="mask8_44_6834" style="mask-type:alpha" maskUnits="userSpaceOnUse" x="33" y="43" width="14" height="8">
<path d="M33.5024 44.1698L35.8666 50.4602C35.9205 50.6035 36.0714 50.6935 36.232 50.6782L45.737 49.7722C45.8928 49.7573 46.0192 49.6468 46.0465 49.5016L46.7383 45.8185C46.7728 45.635 46.6391 45.4612 46.4433 45.4347L33.8824 43.7334C33.865 43.731 33.8478 43.7299 33.8309 43.7299C33.5954 43.7299 33.4205 43.9517 33.5024 44.1698Z" fill="white"/>
</mask>
<g mask="url(#mask8_44_6834)">
<path d="M37.3022 42.5945L39.5539 51.208" stroke="#DD965B" stroke-width="0.2" stroke-linecap="round"/>
</g>
<mask id="mask9_44_6834" style="mask-type:alpha" maskUnits="userSpaceOnUse" x="33" y="43" width="14" height="8">
<path d="M33.5024 44.1698L35.8666 50.4602C35.9205 50.6035 36.0714 50.6935 36.232 50.6782L45.737 49.7722C45.8928 49.7573 46.0192 49.6468 46.0465 49.5016L46.7383 45.8185C46.7728 45.635 46.6391 45.4612 46.4433 45.4347L33.8824 43.7334C33.865 43.731 33.8478 43.7299 33.8309 43.7299C33.5954 43.7299 33.4205 43.9517 33.5024 44.1698Z" fill="white"/>
</mask>
<g mask="url(#mask9_44_6834)">
<path d="M39.5537 42.8861L41.2706 51.2876" stroke="#DD965B" stroke-width="0.2" stroke-linecap="round"/>
</g>
<mask id="mask10_44_6834" style="mask-type:alpha" maskUnits="userSpaceOnUse" x="33" y="43" width="14" height="8">
<path d="M33.5024 44.1698L35.8666 50.4602C35.9205 50.6035 36.0714 50.6935 36.232 50.6782L45.737 49.7722C45.8928 49.7573 46.0192 49.6468 46.0465 49.5016L46.7383 45.8185C46.7728 45.635 46.6391 45.4612 46.4433 45.4347L33.8824 43.7334C33.865 43.731 33.8478 43.7299 33.8309 43.7299C33.5954 43.7299 33.4205 43.9517 33.5024 44.1698Z" fill="white"/>
</mask>
<g mask="url(#mask10_44_6834)">
<path d="M42.3121 43.2571L42.0869 51.2081" stroke="#DD965B" stroke-width="0.2" stroke-linecap="round"/>
</g>
<mask id="mask11_44_6834" style="mask-type:alpha" maskUnits="userSpaceOnUse" x="33" y="43" width="14" height="8">
<path d="M33.5024 44.1698L35.8666 50.4602C35.9205 50.6035 36.0714 50.6935 36.232 50.6782L45.737 49.7722C45.8928 49.7573 46.0192 49.6468 46.0465 49.5016L46.7383 45.8185C46.7728 45.635 46.6391 45.4612 46.4433 45.4347L33.8824 43.7334C33.865 43.731 33.8478 43.7299 33.8309 43.7299C33.5954 43.7299 33.4205 43.9517 33.5024 44.1698Z" fill="white"/>
</mask>
<g mask="url(#mask11_44_6834)">
<path d="M44.3384 43.4956L43.7192 51.3936" stroke="#DD965B" stroke-width="0.2" stroke-linecap="round"/>
</g>
<mask id="mask12_44_6834" style="mask-type:alpha" maskUnits="userSpaceOnUse" x="33" y="43" width="14" height="8">
<path d="M33.5024 44.1698L35.8666 50.4602C35.9205 50.6035 36.0714 50.6935 36.232 50.6782L45.737 49.7722C45.8928 49.7573 46.0192 49.6468 46.0465 49.5016L46.7383 45.8185C46.7728 45.635 46.6391 45.4612 46.4433 45.4347L33.8824 43.7334C33.865 43.731 33.8478 43.7299 33.8309 43.7299C33.5954 43.7299 33.4205 43.9517 33.5024 44.1698Z" fill="white"/>
</mask>
<g mask="url(#mask12_44_6834)">
<path d="M45.999 44.0787L44.9014 51.208" stroke="#DD965B" stroke-width="0.2" stroke-linecap="round"/>
</g>
<mask id="mask13_44_6834" style="mask-type:alpha" maskUnits="userSpaceOnUse" x="33" y="43" width="14" height="8">
<path d="M33.5024 44.1698L35.8666 50.4602C35.9205 50.6035 36.0714 50.6935 36.232 50.6782L45.737 49.7722C45.8928 49.7573 46.0192 49.6468 46.0465 49.5016L46.7383 45.8185C46.7728 45.635 46.6391 45.4612 46.4433 45.4347L33.8824 43.7334C33.865 43.731 33.8478 43.7299 33.8309 43.7299C33.5954 43.7299 33.4205 43.9517 33.5024 44.1698Z" fill="white"/>
</mask>
<g mask="url(#mask13_44_6834)">
<path fill-rule="evenodd" clip-rule="evenodd" d="M31.2649 42.8728L49.4468 51.2743L32.5596 55.0642C32.5596 55.0642 26.1987 45.4701 25.6921 44.516C25.1855 43.5619 31.2649 42.8728 31.2649 42.8728Z" fill="#EFB484"/>
</g>
<mask id="mask14_44_6834" style="mask-type:alpha" maskUnits="userSpaceOnUse" x="33" y="43" width="14" height="8">
<path d="M33.5024 44.1698L35.8666 50.4602C35.9205 50.6035 36.0714 50.6935 36.232 50.6782L45.737 49.7722C45.8928 49.7573 46.0192 49.6468 46.0465 49.5016L46.7383 45.8185C46.7728 45.635 46.6391 45.4612 46.4433 45.4347L33.8824 43.7334C33.865 43.731 33.8478 43.7299 33.8309 43.7299C33.5954 43.7299 33.4205 43.9517 33.5024 44.1698Z" fill="white"/>
</mask>
<g mask="url(#mask14_44_6834)">
<path d="M31.6729 44.9718L48.3356 46.7901" stroke="#DD965B" stroke-width="0.2" stroke-linecap="round"/>
</g>
<mask id="mask15_44_6834" style="mask-type:alpha" maskUnits="userSpaceOnUse" x="33" y="43" width="14" height="8">
<path d="M33.5024 44.1698L35.8666 50.4602C35.9205 50.6035 36.0714 50.6935 36.232 50.6782L45.737 49.7722C45.8928 49.7573 46.0192 49.6468 46.0465 49.5016L46.7383 45.8185C46.7728 45.635 46.6391 45.4612 46.4433 45.4347L33.8824 43.7334C33.865 43.731 33.8478 43.7299 33.8309 43.7299C33.5954 43.7299 33.4205 43.9517 33.5024 44.1698Z" fill="white"/>
</mask>
<g mask="url(#mask15_44_6834)">
<path d="M32.1519 47.2061L48.1102 47.6566" stroke="#DD965B" stroke-width="0.2" stroke-linecap="round"/>
</g>
<mask id="mask16_44_6834" style="mask-type:alpha" maskUnits="userSpaceOnUse" x="33" y="43" width="14" height="8">
<path d="M33.5024 44.1698L35.8666 50.4602C35.9205 50.6035 36.0714 50.6935 36.232 50.6782L45.737 49.7722C45.8928 49.7573 46.0192 49.6468 46.0465 49.5016L46.7383 45.8185C46.7728 45.635 46.6391 45.4612 46.4433 45.4347L33.8824 43.7334C33.865 43.731 33.8478 43.7299 33.8309 43.7299C33.5954 43.7299 33.4205 43.9517 33.5024 44.1698Z" fill="white"/>
</mask>
<g mask="url(#mask16_44_6834)">
<path d="M32.4893 49.6444L48.4758 48.4517" stroke="#DD965B" stroke-width="0.2" stroke-linecap="round"/>
</g>
<mask id="mask17_44_6834" style="mask-type:alpha" maskUnits="userSpaceOnUse" x="33" y="43" width="14" height="8">
<path d="M33.5024 44.1698L35.8666 50.4602C35.9205 50.6035 36.0714 50.6935 36.232 50.6782L45.737 49.7722C45.8928 49.7573 46.0192 49.6468 46.0465 49.5016L46.7383 45.8185C46.7728 45.635 46.6391 45.4612 46.4433 45.4347L33.8824 43.7334C33.865 43.731 33.8478 43.7299 33.8309 43.7299C33.5954 43.7299 33.4205 43.9517 33.5024 44.1698Z" fill="white"/>
</mask>
<g mask="url(#mask17_44_6834)">
<path d="M34.9941 42.8861L37.4709 51.3936" stroke="#DD965B" stroke-width="0.2" stroke-linecap="round"/>
</g>
<mask id="mask18_44_6834" style="mask-type:alpha" maskUnits="userSpaceOnUse" x="33" y="43" width="14" height="8">
<path d="M33.5024 44.1698L35.8666 50.4602C35.9205 50.6035 36.0714 50.6935 36.232 50.6782L45.737 49.7722C45.8928 49.7573 46.0192 49.6468 46.0465 49.5016L46.7383 45.8185C46.7728 45.635 46.6391 45.4612 46.4433 45.4347L33.8824 43.7334C33.865 43.731 33.8478 43.7299 33.8309 43.7299C33.5954 43.7299 33.4205 43.9517 33.5024 44.1698Z" fill="white"/>
</mask>
<g mask="url(#mask18_44_6834)">
<path d="M37.3022 42.5945L39.5539 51.208" stroke="#DD965B" stroke-width="0.2" stroke-linecap="round"/>
</g>
<mask id="mask19_44_6834" style="mask-type:alpha" maskUnits="userSpaceOnUse" x="33" y="43" width="14" height="8">
<path d="M33.5024 44.1698L35.8666 50.4602C35.9205 50.6035 36.0714 50.6935 36.232 50.6782L45.737 49.7722C45.8928 49.7573 46.0192 49.6468 46.0465 49.5016L46.7383 45.8185C46.7728 45.635 46.6391 45.4612 46.4433 45.4347L33.8824 43.7334C33.865 43.731 33.8478 43.7299 33.8309 43.7299C33.5954 43.7299 33.4205 43.9517 33.5024 44.1698Z" fill="white"/>
</mask>
<g mask="url(#mask19_44_6834)">
<path d="M39.5537 42.8861L41.2706 51.2876" stroke="#DD965B" stroke-width="0.2" stroke-linecap="round"/>
</g>
<mask id="mask20_44_6834" style="mask-type:alpha" maskUnits="userSpaceOnUse" x="33" y="43" width="14" height="8">
<path d="M33.5024 44.1698L35.8666 50.4602C35.9205 50.6035 36.0714 50.6935 36.232 50.6782L45.737 49.7722C45.8928 49.7573 46.0192 49.6468 46.0465 49.5016L46.7383 45.8185C46.7728 45.635 46.6391 45.4612 46.4433 45.4347L33.8824 43.7334C33.865 43.731 33.8478 43.7299 33.8309 43.7299C33.5954 43.7299 33.4205 43.9517 33.5024 44.1698Z" fill="white"/>
</mask>
<g mask="url(#mask20_44_6834)">
<path d="M42.3121 43.2571L42.0869 51.2081" stroke="#DD965B" stroke-width="0.2" stroke-linecap="round"/>
</g>
<mask id="mask21_44_6834" style="mask-type:alpha" maskUnits="userSpaceOnUse" x="33" y="43" width="14" height="8">
<path d="M33.5024 44.1698L35.8666 50.4602C35.9205 50.6035 36.0714 50.6935 36.232 50.6782L45.737 49.7722C45.8928 49.7573 46.0192 49.6468 46.0465 49.5016L46.7383 45.8185C46.7728 45.635 46.6391 45.4612 46.4433 45.4347L33.8824 43.7334C33.865 43.731 33.8478 43.7299 33.8309 43.7299C33.5954 43.7299 33.4205 43.9517 33.5024 44.1698Z" fill="white"/>
</mask>
<g mask="url(#mask21_44_6834)">
<path d="M44.3384 43.4956L43.7192 51.3936" stroke="#DD965B" stroke-width="0.2" stroke-linecap="round"/>
</g>
<mask id="mask22_44_6834" style="mask-type:alpha" maskUnits="userSpaceOnUse" x="33" y="43" width="14" height="8">
<path d="M33.5024 44.1698L35.8666 50.4602C35.9205 50.6035 36.0714 50.6935 36.232 50.6782L45.737 49.7722C45.8928 49.7573 46.0192 49.6468 46.0465 49.5016L46.7383 45.8185C46.7728 45.635 46.6391 45.4612 46.4433 45.4347L33.8824 43.7334C33.865 43.731 33.8478 43.7299 33.8309 43.7299C33.5954 43.7299 33.4205 43.9517 33.5024 44.1698Z" fill="white"/>
</mask>
<g mask="url(#mask22_44_6834)">
<path d="M45.999 44.0787L44.9014 51.208" stroke="#DD965B" stroke-width="0.2" stroke-linecap="round"/>
</g>
<path d="M44.1961 53.3729H36.1562L37.0928 51.1974" stroke="#DD8345" stroke-width="0.2" stroke-linecap="round"/>
</svg>
