<svg width="80" height="80" viewBox="0 0 80 80" fill="none" xmlns="http://www.w3.org/2000/svg">
<circle cx="40" cy="40" r="40" fill="#FEE8F4"/>
<path fill-rule="evenodd" clip-rule="evenodd" d="M48.6789 59.9938H31.0757C29.3841 59.9938 28 58.6097 28 56.9181V23.1028C28 21.4112 29.3841 20.0271 31.0757 20.0271H48.6789C50.3706 20.0271 51.7546 21.4112 51.7546 23.1028V56.9181C51.7546 58.6097 50.3706 59.9938 48.6789 59.9938Z" fill="#317C7A"/>
<path fill-rule="evenodd" clip-rule="evenodd" d="M48.0161 59.0133H31.7383C30.1466 59.0133 28.8442 57.711 28.8442 56.1192V23.8145C28.8442 22.2227 30.1466 20.9204 31.7383 20.9204H48.0161C49.6079 20.9204 50.9102 22.2227 50.9102 23.8145V56.1192C50.9102 57.711 49.6079 59.0133 48.0161 59.0133Z" fill="#236864"/>
<path fill-rule="evenodd" clip-rule="evenodd" d="M48.0607 58.0326H31.7415C30.1733 58.0326 28.8901 56.7494 28.8901 55.1812V23.8326C28.8901 22.2643 30.1733 20.9812 31.7415 20.9812H48.0607C49.6289 20.9812 50.9121 22.2643 50.9121 23.8326V55.1812C50.9121 56.7494 49.6289 58.0326 48.0607 58.0326Z" fill="#E9F1F2"/>
<mask id="mask0_107:22712" style="mask-type:alpha" maskUnits="userSpaceOnUse" x="28" y="20" width="23" height="39">
<path d="M31.7415 20.9812C30.1733 20.9812 28.8901 22.2643 28.8901 23.8326V55.1812C28.8901 56.7495 30.1733 58.0326 31.7415 58.0326H48.0607C49.6289 58.0326 50.9121 56.7495 50.9121 55.1812V23.8326C50.9121 22.2644 49.6289 20.9812 48.0607 20.9812H31.7415Z" fill="white"/>
</mask>
<g mask="url(#mask0_107:22712)">
<path fill-rule="evenodd" clip-rule="evenodd" d="M47.2795 18.8609C47.2795 18.8609 52.0642 53.686 28 51.8573C3.93572 50.0286 28.5347 62.114 28.5347 62.114L56.6519 60.7623L58.3407 34.6832L55.3854 16.4756L47.2795 18.8609Z" fill="#D1E3E5"/>
</g>
<path fill-rule="evenodd" clip-rule="evenodd" d="M34.2761 31.3131L39.9097 28.084L45.5433 31.3131V37.6228C45.5433 38.4422 45.1336 39.2138 44.4375 39.7054L40.8957 42.2067C40.3106 42.62 39.5068 42.6226 38.9186 42.2132L35.3065 39.6992C34.6585 39.2482 34.2761 38.5344 34.2761 37.7756V31.3131Z" fill="#418C8C"/>
<mask id="mask1_107:22712" style="mask-type:alpha" maskUnits="userSpaceOnUse" x="34" y="28" width="12" height="15">
<path d="M34.2761 31.3131V37.7756C34.2761 38.5344 34.6585 39.2482 35.3065 39.6992L38.9186 42.2132C39.5068 42.6226 40.3106 42.62 40.8957 42.2067L44.4375 39.7054C45.1336 39.2138 45.5433 38.4422 45.5433 37.6228V31.3131L39.9097 28.084L34.2761 31.3131Z" fill="white"/>
</mask>
<g mask="url(#mask1_107:22712)">
<path fill-rule="evenodd" clip-rule="evenodd" d="M39.8772 24.5855L39.9053 46.2121L51.7545 38.1816V24.188L39.8772 24.5855Z" fill="#296866"/>
</g>
<path fill-rule="evenodd" clip-rule="evenodd" d="M42.298 34.2684C42.298 35.6935 41.2836 36.8487 40.0323 36.8487C38.781 36.8487 37.7666 35.6935 37.7666 34.2684C37.7666 32.8433 38.781 31.688 40.0323 31.688C41.2836 31.688 42.298 32.8433 42.298 34.2684Z" fill="white"/>
<path fill-rule="evenodd" clip-rule="evenodd" d="M41.8186 34.2813C41.8186 35.4015 41.0212 36.3096 40.0376 36.3096C39.054 36.3096 38.2566 35.4015 38.2566 34.2813C38.2566 33.1611 39.054 32.2529 40.0376 32.2529C41.0212 32.2529 41.8186 33.1611 41.8186 34.2813Z" fill="#418C8C"/>
<path fill-rule="evenodd" clip-rule="evenodd" d="M42.9486 37.8289H37.116C36.935 37.8289 36.7869 37.6808 36.7869 37.4998V34.2947C36.7869 34.1137 36.935 33.9656 37.116 33.9656H42.9486C43.1297 33.9656 43.2777 34.1137 43.2777 34.2947V37.4998C43.2777 37.6808 43.1297 37.8289 42.9486 37.8289Z" fill="white"/>
<mask id="mask2_107:22712" style="mask-type:alpha" maskUnits="userSpaceOnUse" x="36" y="33" width="8" height="5">
<path d="M37.116 33.9656C36.935 33.9656 36.7869 34.1137 36.7869 34.2947V37.4998C36.7869 37.6808 36.935 37.8289 37.116 37.8289H42.9487C43.1297 37.8289 43.2778 37.6808 43.2778 37.4998V34.2947C43.2778 34.1137 43.1297 33.9656 42.9487 33.9656H37.116Z" fill="white"/>
</mask>
<g mask="url(#mask2_107:22712)">
<path fill-rule="evenodd" clip-rule="evenodd" d="M40.6372 32.1125C40.6372 32.1125 46.9136 37.6252 36.2184 37.0686C25.5232 36.5121 41.7349 39.2154 41.7349 39.2154L44.859 37.8372V32.2451L42.4667 32.6426L40.6372 32.1125Z" fill="#F7E5C1"/>
</g>
<path fill-rule="evenodd" clip-rule="evenodd" d="M37.2751 32.8528L36.3672 34.1194L40.2342 36.8425L47.3629 28.6415L45.648 27.6599L39.9988 35.0376L37.2751 32.8528Z" fill="#FDAD5E"/>
<mask id="mask3_107:22712" style="mask-type:alpha" maskUnits="userSpaceOnUse" x="36" y="27" width="12" height="10">
<path d="M39.9988 35.0376L37.2751 32.8528L36.3672 34.1194L40.2342 36.8425L47.3629 28.6415L45.6479 27.6599L39.9988 35.0376Z" fill="white"/>
</mask>
<g mask="url(#mask3_107:22712)">
<path fill-rule="evenodd" clip-rule="evenodd" d="M36.9525 33.1936L35.9036 34.6568L40.3712 37.8029L48.6072 28.3281L46.6259 27.1941L40.0992 35.7177L36.9525 33.1936Z" fill="#EA8F3D"/>
</g>
<path fill-rule="evenodd" clip-rule="evenodd" d="M33.2985 23.075H31.6519C31.4855 23.075 31.3494 22.9388 31.3494 22.7725V22.3704C31.3494 22.204 31.4855 22.0679 31.6519 22.0679H33.2985C33.4648 22.0679 33.601 22.204 33.601 22.3704V22.7725C33.601 22.9388 33.4648 23.075 33.2985 23.075Z" fill="#317C7A"/>
<path fill-rule="evenodd" clip-rule="evenodd" d="M36.2255 23.075H34.5789C34.4125 23.075 34.2764 22.9388 34.2764 22.7725V22.3704C34.2764 22.204 34.4125 22.0679 34.5789 22.0679H36.2255C36.3919 22.0679 36.528 22.204 36.528 22.3704V22.7725C36.528 22.9388 36.3919 23.075 36.2255 23.075Z" fill="#317C7A"/>
<path fill-rule="evenodd" clip-rule="evenodd" d="M48.1029 23.1016H46.4563C46.29 23.1016 46.1538 22.9655 46.1538 22.7991V22.397C46.1538 22.2306 46.29 22.0945 46.4563 22.0945H48.1029C48.2693 22.0945 48.4054 22.2306 48.4054 22.397V22.7991C48.4054 22.9655 48.2693 23.1016 48.1029 23.1016Z" fill="#317C7A"/>
<path fill-rule="evenodd" clip-rule="evenodd" d="M36.5569 54.0837C36.5569 54.4922 36.9086 54.8233 37.3424 54.8233C37.7762 54.8233 38.1279 54.4922 38.1279 54.0837C38.1279 53.6752 37.7762 53.344 37.3424 53.344C36.9086 53.344 36.5569 53.6752 36.5569 54.0837Z" fill="#7C4927"/>
<path fill-rule="evenodd" clip-rule="evenodd" d="M36.8655 54.0962C36.8655 54.3525 37.0861 54.5603 37.3583 54.5603C37.6305 54.5603 37.8512 54.3525 37.8512 54.0962C37.8512 53.8399 37.6305 53.6321 37.3583 53.6321C37.0861 53.6321 36.8655 53.8399 36.8655 54.0962Z" fill="#DD8345"/>
<path fill-rule="evenodd" clip-rule="evenodd" d="M41.7917 54.11C41.7917 54.5185 42.1434 54.8497 42.5773 54.8497C43.0111 54.8497 43.3627 54.5185 43.3627 54.11C43.3627 53.7015 43.0111 53.3704 42.5773 53.3704C42.1434 53.3704 41.7917 53.7015 41.7917 54.11Z" fill="#7C4927"/>
<path fill-rule="evenodd" clip-rule="evenodd" d="M42.1006 54.1228C42.1006 54.3791 42.3212 54.5869 42.5934 54.5869C42.8657 54.5869 43.0863 54.3791 43.0863 54.1228C43.0863 53.8665 42.8657 53.6587 42.5934 53.6587C42.3212 53.6587 42.1006 53.8665 42.1006 54.1228Z" fill="#DD8345"/>
<path d="M31.6589 42.6116C31.6589 42.6116 32.6755 42.3215 33.1683 43.6558C33.6612 44.9901 36.0639 51.2845 36.0639 51.2845L44.0113 50.5014C44.0113 50.5014 44.0113 50.7334 44.7506 49.5442" stroke="#DD8345" stroke-width="0.2" stroke-linecap="round"/>
<path fill-rule="evenodd" clip-rule="evenodd" d="M46.7381 45.8184L46.0463 49.5014C46.019 49.6467 45.8926 49.7572 45.7367 49.7721L36.2317 50.6781C36.0711 50.6934 35.9202 50.6034 35.8664 50.46L33.5022 44.1696C33.4143 43.9359 33.6216 43.6979 33.8822 43.7332L46.4431 45.4345C46.6389 45.4611 46.7725 45.6349 46.7381 45.8184Z" fill="#FFCEA1"/>
<mask id="mask4_107:22712" style="mask-type:alpha" maskUnits="userSpaceOnUse" x="33" y="43" width="14" height="8">
<path d="M33.5022 44.1696L35.8664 50.46C35.9202 50.6033 36.0711 50.6934 36.2317 50.6781L45.7367 49.7721C45.8926 49.7572 46.019 49.6467 46.0463 49.5014L46.7381 45.8183C46.7725 45.6349 46.6389 45.4611 46.4431 45.4345L33.8822 43.7332C33.8647 43.7309 33.8476 43.7297 33.8307 43.7297C33.5952 43.7297 33.4202 43.9515 33.5022 44.1696Z" fill="white"/>
</mask>
<g mask="url(#mask4_107:22712)">
<path d="M31.6726 44.9717L48.3354 46.79" stroke="#DD965B" stroke-width="0.2" stroke-linecap="round"/>
</g>
<mask id="mask5_107:22712" style="mask-type:alpha" maskUnits="userSpaceOnUse" x="33" y="43" width="14" height="8">
<path d="M33.5022 44.1696L35.8664 50.46C35.9202 50.6033 36.0711 50.6934 36.2317 50.6781L45.7367 49.7721C45.8926 49.7572 46.019 49.6467 46.0463 49.5014L46.7381 45.8183C46.7725 45.6349 46.6389 45.4611 46.4431 45.4345L33.8822 43.7332C33.8647 43.7309 33.8476 43.7297 33.8307 43.7297C33.5952 43.7297 33.4202 43.9515 33.5022 44.1696Z" fill="white"/>
</mask>
<g mask="url(#mask5_107:22712)">
<path d="M32.1514 47.2061L48.1098 47.6566" stroke="#DD965B" stroke-width="0.2" stroke-linecap="round"/>
</g>
<mask id="mask6_107:22712" style="mask-type:alpha" maskUnits="userSpaceOnUse" x="33" y="43" width="14" height="8">
<path d="M33.5022 44.1696L35.8664 50.46C35.9202 50.6033 36.0711 50.6934 36.2317 50.6781L45.7367 49.7721C45.8926 49.7572 46.019 49.6467 46.0463 49.5014L46.7381 45.8183C46.7725 45.6349 46.6389 45.4611 46.4431 45.4345L33.8822 43.7332C33.8647 43.7309 33.8476 43.7297 33.8307 43.7297C33.5952 43.7297 33.4202 43.9515 33.5022 44.1696Z" fill="white"/>
</mask>
<g mask="url(#mask6_107:22712)">
<path d="M32.4048 49.6443L48.3913 48.4517" stroke="#DD965B" stroke-width="0.2" stroke-linecap="round"/>
</g>
<mask id="mask7_107:22712" style="mask-type:alpha" maskUnits="userSpaceOnUse" x="33" y="43" width="14" height="8">
<path d="M33.5022 44.1696L35.8664 50.46C35.9202 50.6033 36.0711 50.6934 36.2317 50.6781L45.7367 49.7721C45.8926 49.7572 46.019 49.6467 46.0463 49.5014L46.7381 45.8183C46.7725 45.6349 46.6389 45.4611 46.4431 45.4345L33.8822 43.7332C33.8647 43.7309 33.8476 43.7297 33.8307 43.7297C33.5952 43.7297 33.4202 43.9515 33.5022 44.1696Z" fill="white"/>
</mask>
<g mask="url(#mask7_107:22712)">
<path d="M34.9941 42.886L37.4709 51.3935" stroke="#DD965B" stroke-width="0.2" stroke-linecap="round"/>
</g>
<mask id="mask8_107:22712" style="mask-type:alpha" maskUnits="userSpaceOnUse" x="33" y="43" width="14" height="8">
<path d="M33.5022 44.1696L35.8664 50.46C35.9202 50.6033 36.0711 50.6934 36.2317 50.6781L45.7367 49.7721C45.8926 49.7572 46.019 49.6467 46.0463 49.5014L46.7381 45.8183C46.7725 45.6349 46.6389 45.4611 46.4431 45.4345L33.8822 43.7332C33.8647 43.7309 33.8476 43.7297 33.8307 43.7297C33.5952 43.7297 33.4202 43.9515 33.5022 44.1696Z" fill="white"/>
</mask>
<g mask="url(#mask8_107:22712)">
<path d="M37.302 42.5945L39.5536 51.208" stroke="#DD965B" stroke-width="0.2" stroke-linecap="round"/>
</g>
<mask id="mask9_107:22712" style="mask-type:alpha" maskUnits="userSpaceOnUse" x="33" y="43" width="14" height="8">
<path d="M33.5022 44.1696L35.8664 50.46C35.9202 50.6033 36.0711 50.6934 36.2317 50.6781L45.7367 49.7721C45.8926 49.7572 46.019 49.6467 46.0463 49.5014L46.7381 45.8183C46.7725 45.6349 46.6389 45.4611 46.4431 45.4345L33.8822 43.7332C33.8647 43.7309 33.8476 43.7297 33.8307 43.7297C33.5952 43.7297 33.4202 43.9515 33.5022 44.1696Z" fill="white"/>
</mask>
<g mask="url(#mask9_107:22712)">
<path d="M39.5537 42.886L41.2706 51.2875" stroke="#DD965B" stroke-width="0.2" stroke-linecap="round"/>
</g>
<mask id="mask10_107:22712" style="mask-type:alpha" maskUnits="userSpaceOnUse" x="33" y="43" width="14" height="8">
<path d="M33.5022 44.1696L35.8664 50.46C35.9202 50.6033 36.0711 50.6934 36.2317 50.6781L45.7367 49.7721C45.8926 49.7572 46.019 49.6467 46.0463 49.5014L46.7381 45.8183C46.7725 45.6349 46.6389 45.4611 46.4431 45.4345L33.8822 43.7332C33.8647 43.7309 33.8476 43.7297 33.8307 43.7297C33.5952 43.7297 33.4202 43.9515 33.5022 44.1696Z" fill="white"/>
</mask>
<g mask="url(#mask10_107:22712)">
<path d="M42.3118 43.2571L42.0867 51.208" stroke="#DD965B" stroke-width="0.2" stroke-linecap="round"/>
</g>
<mask id="mask11_107:22712" style="mask-type:alpha" maskUnits="userSpaceOnUse" x="33" y="43" width="14" height="8">
<path d="M33.5022 44.1696L35.8664 50.46C35.9202 50.6033 36.0711 50.6934 36.2317 50.6781L45.7367 49.7721C45.8926 49.7572 46.019 49.6467 46.0463 49.5014L46.7381 45.8183C46.7725 45.6349 46.6389 45.4611 46.4431 45.4345L33.8822 43.7332C33.8647 43.7309 33.8476 43.7297 33.8307 43.7297C33.5952 43.7297 33.4202 43.9515 33.5022 44.1696Z" fill="white"/>
</mask>
<g mask="url(#mask11_107:22712)">
<path d="M44.3384 43.4956L43.7192 51.3935" stroke="#DD965B" stroke-width="0.2" stroke-linecap="round"/>
</g>
<mask id="mask12_107:22712" style="mask-type:alpha" maskUnits="userSpaceOnUse" x="33" y="43" width="14" height="8">
<path d="M33.5022 44.1696L35.8664 50.46C35.9202 50.6033 36.0711 50.6934 36.2317 50.6781L45.7367 49.7721C45.8926 49.7572 46.019 49.6467 46.0463 49.5014L46.7381 45.8183C46.7725 45.6349 46.6389 45.4611 46.4431 45.4345L33.8822 43.7332C33.8647 43.7309 33.8476 43.7297 33.8307 43.7297C33.5952 43.7297 33.4202 43.9515 33.5022 44.1696Z" fill="white"/>
</mask>
<g mask="url(#mask12_107:22712)">
<path d="M45.999 44.0786L44.9014 51.208" stroke="#DD965B" stroke-width="0.2" stroke-linecap="round"/>
</g>
<mask id="mask13_107:22712" style="mask-type:alpha" maskUnits="userSpaceOnUse" x="33" y="43" width="14" height="8">
<path d="M33.5022 44.1696L35.8664 50.46C35.9202 50.6033 36.0711 50.6934 36.2317 50.6781L45.7367 49.7721C45.8926 49.7572 46.019 49.6467 46.0463 49.5014L46.7381 45.8183C46.7725 45.6349 46.6389 45.4611 46.4431 45.4345L33.8822 43.7332C33.8647 43.7309 33.8476 43.7297 33.8307 43.7297C33.5952 43.7297 33.4202 43.9515 33.5022 44.1696Z" fill="white"/>
</mask>
<g mask="url(#mask13_107:22712)">
<path fill-rule="evenodd" clip-rule="evenodd" d="M31.2649 42.8728L49.4468 51.2743L32.5596 55.0642C32.5596 55.0642 26.1987 45.4701 25.6921 44.516C25.1855 43.5619 31.2649 42.8728 31.2649 42.8728Z" fill="#EFB484"/>
</g>
<mask id="mask14_107:22712" style="mask-type:alpha" maskUnits="userSpaceOnUse" x="33" y="43" width="14" height="8">
<path d="M33.5022 44.1696L35.8664 50.46C35.9202 50.6033 36.0711 50.6934 36.2317 50.6781L45.7367 49.7721C45.8926 49.7572 46.019 49.6467 46.0463 49.5014L46.7381 45.8183C46.7725 45.6349 46.6389 45.4611 46.4431 45.4345L33.8822 43.7332C33.8647 43.7309 33.8476 43.7297 33.8307 43.7297C33.5952 43.7297 33.4202 43.9515 33.5022 44.1696Z" fill="white"/>
</mask>
<g mask="url(#mask14_107:22712)">
<path d="M31.6726 44.9717L48.3354 46.79" stroke="#DD965B" stroke-width="0.2" stroke-linecap="round"/>
</g>
<mask id="mask15_107:22712" style="mask-type:alpha" maskUnits="userSpaceOnUse" x="33" y="43" width="14" height="8">
<path d="M33.5022 44.1696L35.8664 50.46C35.9202 50.6033 36.0711 50.6934 36.2317 50.6781L45.7367 49.7721C45.8926 49.7572 46.019 49.6467 46.0463 49.5014L46.7381 45.8183C46.7725 45.6349 46.6389 45.4611 46.4431 45.4345L33.8822 43.7332C33.8647 43.7309 33.8476 43.7297 33.8307 43.7297C33.5952 43.7297 33.4202 43.9515 33.5022 44.1696Z" fill="white"/>
</mask>
<g mask="url(#mask15_107:22712)">
<path d="M32.1514 47.2061L48.1098 47.6566" stroke="#DD965B" stroke-width="0.2" stroke-linecap="round"/>
</g>
<mask id="mask16_107:22712" style="mask-type:alpha" maskUnits="userSpaceOnUse" x="33" y="43" width="14" height="8">
<path d="M33.5022 44.1696L35.8664 50.46C35.9202 50.6033 36.0711 50.6934 36.2317 50.6781L45.7367 49.7721C45.8926 49.7572 46.019 49.6467 46.0463 49.5014L46.7381 45.8183C46.7725 45.6349 46.6389 45.4611 46.4431 45.4345L33.8822 43.7332C33.8647 43.7309 33.8476 43.7297 33.8307 43.7297C33.5952 43.7297 33.4202 43.9515 33.5022 44.1696Z" fill="white"/>
</mask>
<g mask="url(#mask16_107:22712)">
<path d="M32.4893 49.6443L48.4758 48.4517" stroke="#DD965B" stroke-width="0.2" stroke-linecap="round"/>
</g>
<mask id="mask17_107:22712" style="mask-type:alpha" maskUnits="userSpaceOnUse" x="33" y="43" width="14" height="8">
<path d="M33.5022 44.1696L35.8664 50.46C35.9202 50.6033 36.0711 50.6934 36.2317 50.6781L45.7367 49.7721C45.8926 49.7572 46.019 49.6467 46.0463 49.5014L46.7381 45.8183C46.7725 45.6349 46.6389 45.4611 46.4431 45.4345L33.8822 43.7332C33.8647 43.7309 33.8476 43.7297 33.8307 43.7297C33.5952 43.7297 33.4202 43.9515 33.5022 44.1696Z" fill="white"/>
</mask>
<g mask="url(#mask17_107:22712)">
<path d="M34.9941 42.886L37.4709 51.3935" stroke="#DD965B" stroke-width="0.2" stroke-linecap="round"/>
</g>
<mask id="mask18_107:22712" style="mask-type:alpha" maskUnits="userSpaceOnUse" x="33" y="43" width="14" height="8">
<path d="M33.5022 44.1696L35.8664 50.46C35.9202 50.6033 36.0711 50.6934 36.2317 50.6781L45.7367 49.7721C45.8926 49.7572 46.019 49.6467 46.0463 49.5014L46.7381 45.8183C46.7725 45.6349 46.6389 45.4611 46.4431 45.4345L33.8822 43.7332C33.8647 43.7309 33.8476 43.7297 33.8307 43.7297C33.5952 43.7297 33.4202 43.9515 33.5022 44.1696Z" fill="white"/>
</mask>
<g mask="url(#mask18_107:22712)">
<path d="M37.302 42.5945L39.5536 51.208" stroke="#DD965B" stroke-width="0.2" stroke-linecap="round"/>
</g>
<mask id="mask19_107:22712" style="mask-type:alpha" maskUnits="userSpaceOnUse" x="33" y="43" width="14" height="8">
<path d="M33.5022 44.1696L35.8664 50.46C35.9202 50.6033 36.0711 50.6934 36.2317 50.6781L45.7367 49.7721C45.8926 49.7572 46.019 49.6467 46.0463 49.5014L46.7381 45.8183C46.7725 45.6349 46.6389 45.4611 46.4431 45.4345L33.8822 43.7332C33.8647 43.7309 33.8476 43.7297 33.8307 43.7297C33.5952 43.7297 33.4202 43.9515 33.5022 44.1696Z" fill="white"/>
</mask>
<g mask="url(#mask19_107:22712)">
<path d="M39.5537 42.886L41.2706 51.2875" stroke="#DD965B" stroke-width="0.2" stroke-linecap="round"/>
</g>
<mask id="mask20_107:22712" style="mask-type:alpha" maskUnits="userSpaceOnUse" x="33" y="43" width="14" height="8">
<path d="M33.5022 44.1696L35.8664 50.46C35.9202 50.6033 36.0711 50.6934 36.2317 50.6781L45.7367 49.7721C45.8926 49.7572 46.019 49.6467 46.0463 49.5014L46.7381 45.8183C46.7725 45.6349 46.6389 45.4611 46.4431 45.4345L33.8822 43.7332C33.8647 43.7309 33.8476 43.7297 33.8307 43.7297C33.5952 43.7297 33.4202 43.9515 33.5022 44.1696Z" fill="white"/>
</mask>
<g mask="url(#mask20_107:22712)">
<path d="M42.3118 43.2571L42.0867 51.208" stroke="#DD965B" stroke-width="0.2" stroke-linecap="round"/>
</g>
<mask id="mask21_107:22712" style="mask-type:alpha" maskUnits="userSpaceOnUse" x="33" y="43" width="14" height="8">
<path d="M33.5022 44.1696L35.8664 50.46C35.9202 50.6033 36.0711 50.6934 36.2317 50.6781L45.7367 49.7721C45.8926 49.7572 46.019 49.6467 46.0463 49.5014L46.7381 45.8183C46.7725 45.6349 46.6389 45.4611 46.4431 45.4345L33.8822 43.7332C33.8647 43.7309 33.8476 43.7297 33.8307 43.7297C33.5952 43.7297 33.4202 43.9515 33.5022 44.1696Z" fill="white"/>
</mask>
<g mask="url(#mask21_107:22712)">
<path d="M44.3384 43.4956L43.7192 51.3935" stroke="#DD965B" stroke-width="0.2" stroke-linecap="round"/>
</g>
<mask id="mask22_107:22712" style="mask-type:alpha" maskUnits="userSpaceOnUse" x="33" y="43" width="14" height="8">
<path d="M33.5022 44.1696L35.8664 50.46C35.9202 50.6033 36.0711 50.6934 36.2317 50.6781L45.7367 49.7721C45.8926 49.7572 46.019 49.6467 46.0463 49.5014L46.7381 45.8183C46.7725 45.6349 46.6389 45.4611 46.4431 45.4345L33.8822 43.7332C33.8647 43.7309 33.8476 43.7297 33.8307 43.7297C33.5952 43.7297 33.4202 43.9515 33.5022 44.1696Z" fill="white"/>
</mask>
<g mask="url(#mask22_107:22712)">
<path d="M45.999 44.0786L44.9014 51.208" stroke="#DD965B" stroke-width="0.2" stroke-linecap="round"/>
</g>
<path d="M44.1961 53.373H36.1562L37.0928 51.1975" stroke="#DD8345" stroke-width="0.2" stroke-linecap="round"/>
</svg>
