<svg width="80" height="80" viewBox="0 0 80 80" fill="none" xmlns="http://www.w3.org/2000/svg">
<circle cx="40" cy="40" r="40" fill="#E2E5E8"/>
<path d="M35.1115 24.4478L31.3982 22.9115L33.2212 19L34.5062 19.5982L33.3062 22.1681L35.6531 23.1381L35.1115 24.4478Z" fill="#10075E"/>
<path d="M39.9646 60.1822C34.9168 60.1822 30.092 58.2991 26.3823 54.8796C22.6938 51.4778 20.4283 46.8654 20 41.8849L21.4088 41.7645C22.2301 51.3008 30.3788 58.7663 39.9611 58.7663C50.2301 58.7663 58.5841 50.4123 58.5841 40.1433C58.5841 29.8743 50.2336 21.5238 39.9646 21.5238C37.5681 21.5238 35.2354 21.9734 33.0301 22.8584L32.5027 21.5451C34.8743 20.5929 37.3841 20.1079 39.9646 20.1079C51.0124 20.1079 60 29.0955 60 40.1433C60 51.1911 51.0124 60.1822 39.9646 60.1822Z" fill="#10075E"/>
<path d="M29.2213 38.0195H21.4337V36.7558L25.7098 32.0053C26.3434 31.2867 26.7788 30.7027 27.0195 30.2531C27.2603 29.8036 27.3806 29.3398 27.3806 28.8584C27.3806 28.2142 27.1859 27.6832 26.7965 27.2726C26.4072 26.8584 25.8868 26.6531 25.2355 26.6531C24.4532 26.6531 23.8479 26.8761 23.416 27.3186C22.9841 27.7611 22.7682 28.3806 22.7682 29.1735H21.1965C21.1965 28.0372 21.5611 27.1168 22.2939 26.416C23.0266 25.7151 24.0072 25.3646 25.2355 25.3646C26.3824 25.3646 27.2921 25.6655 27.9611 26.2673C28.6302 26.869 28.9629 27.6726 28.9629 28.6744C28.9629 29.8921 28.1877 31.3398 26.6372 33.0177L23.3275 36.6036H29.2213V38.0195Z" fill="#10075E"/>
<path d="M36.6548 33.7717H38.4248V35.1876H36.6548V37.6655H35.2389V35.1876L29.5752 34.8337V33.9381L35.0124 25.6301H36.6548V33.7717ZM31.4832 33.7717H35.2425V27.8496L35.0584 28.1823L31.4832 33.7717Z" fill="#10075E"/>
<path d="M52.23 43.4814L47.2424 54.6566H45.6636L50.722 43.6832H44.0884V42.6212H52.23V43.4814Z" fill="#10075E"/>
<path d="M48.6432 30.4613L30.2761 48.8284L31.2773 49.8296L49.6444 31.4625L48.6432 30.4613Z" fill="#10075E"/>
<path d="M39.8407 42.2672C41.0137 42.2672 41.9646 41.3163 41.9646 40.1433C41.9646 38.9703 41.0137 38.0194 39.8407 38.0194C38.6677 38.0194 37.7168 38.9703 37.7168 40.1433C37.7168 41.3163 38.6677 42.2672 39.8407 42.2672Z" fill="#5281FF"/>
<path d="M39.8406 42.9752C38.2796 42.9752 37.0088 41.7044 37.0088 40.1434C37.0088 38.5823 38.2796 37.3115 39.8406 37.3115C41.4017 37.3115 42.6725 38.5823 42.6725 40.1434C42.6725 41.7044 41.4017 42.9752 39.8406 42.9752ZM39.8406 38.7275C39.0583 38.7275 38.4247 39.3611 38.4247 40.1434C38.4247 40.9257 39.0583 41.5593 39.8406 41.5593C40.6229 41.5593 41.2566 40.9257 41.2566 40.1434C41.2566 39.3646 40.6229 38.7275 39.8406 38.7275Z" fill="#10075E"/>
</svg>
